<?xml version="1.0" standalone="no"?>
<!DOCTYPE svg PUBLIC "-//W3C//DTD SVG 20010904//EN"
 "http://www.w3.org/TR/2001/REC-SVG-20010904/DTD/svg10.dtd">
<svg version="1.0" xmlns="http://www.w3.org/2000/svg"
 width="50.000000pt" height="50.000000pt" viewBox="0 0 50.000000 50.000000"
 preserveAspectRatio="xMidYMid meet">

<g transform="translate(0.000000,50.000000) scale(0.100000,-0.100000)"
fill="#000000" stroke="none">
<path d="M146 479 c-32 -25 -32 -33 -1 -61 14 -12 25 -28 25 -37 0 -12 3 -12
12 -3 9 9 5 19 -17 42 -24 25 -26 32 -15 45 17 20 75 16 75 -5 0 -8 -9 -16
-20 -18 -16 -2 -17 -1 -5 7 8 5 11 13 7 17 -4 4 -15 1 -23 -8 -15 -15 -15 -17
2 -26 24 -12 64 2 64 22 0 18 -38 46 -61 46 -9 0 -28 -9 -43 -21z"/>
<path d="M36 414 c-32 -32 -8 -68 41 -62 36 4 40 41 6 46 -13 2 -23 -1 -23 -7
0 -6 7 -11 15 -11 8 0 15 -5 15 -11 0 -6 -10 -9 -22 -7 -15 2 -23 10 -23 23 0
16 7 20 35 20 29 0 36 -4 38 -23 2 -12 8 -20 13 -17 14 9 11 23 -11 45 -24 24
-63 26 -84 4z"/>
<path d="M165 361 c-62 -18 -120 -45 -129 -59 -8 -13 53 -112 69 -112 7 0 38
-35 69 -78 30 -44 63 -85 72 -93 36 -30 173 -2 188 38 3 8 -11 57 -33 108 -21
52 -35 97 -30 102 4 4 -4 31 -19 58 -27 49 -28 50 -77 52 -27 1 -77 -6 -110
-16z m135 1 c0 -4 -30 -13 -67 -20 -37 -7 -87 -22 -111 -32 -47 -21 -77 -26
-68 -11 8 13 116 51 172 60 68 12 74 12 74 3z m43 -57 l17 -35 -33 -16 c-38
-20 -161 -54 -197 -54 -18 0 -31 9 -43 29 -9 16 -17 31 -17 34 0 3 30 10 68
17 37 6 92 22 122 34 30 13 58 24 61 25 3 0 13 -15 22 -34z m44 -151 c18 -43
31 -85 28 -92 -13 -34 -125 -54 -158 -30 -19 15 -107 138 -107 150 0 4 10 8
23 9 12 0 54 11 92 23 39 13 74 23 79 22 5 -1 24 -38 43 -82z"/>
<path d="M280 178 c0 -25 17 -40 41 -36 16 2 24 10 24 23 0 15 -8 21 -32 23
-22 2 -33 -1 -33 -10z m45 -8 c3 -5 1 -10 -4 -10 -6 0 -11 5 -11 10 0 6 2 10
4 10 3 0 8 -4 11 -10z"/>
<path d="M228 173 c-22 -5 -23 -26 -2 -44 16 -13 44 -4 52 19 4 14 -28 30 -50
25z m27 -23 c3 -5 2 -10 -4 -10 -5 0 -13 5 -16 10 -3 6 -2 10 4 10 5 0 13 -4
16 -10z"/>
<path d="M366 333 c15 -27 27 -59 26 -73 -1 -13 11 -57 28 -96 36 -86 37 -107
8 -134 l-22 -20 26 0 c51 0 58 22 58 187 0 178 -2 183 -94 183 l-58 0 28 -47z"/>
<path d="M20 328 c0 -18 2 -19 18 -7 9 7 18 14 20 15 1 1 -6 4 -18 7 -15 4
-20 0 -20 -15z"/>
<path d="M20 153 c0 -146 -3 -143 124 -143 l86 0 -58 79 c-31 44 -65 83 -75
86 -10 4 -31 28 -47 53 l-30 47 0 -122z"/>
</g>
</svg>
